<!DOCTYPE svg PUBLIC "-//W3C//DTD SVG 20010904//EN" "http://www.w3.org/TR/2001/REC-SVG-20010904/DTD/svg10.dtd">
<svg version="1.0" xmlns="http://www.w3.org/2000/svg" width="369px" height="213px" viewBox="0 0 3690 2130" preserveAspectRatio="xMidYMid meet">
<g id="layer1" fill="#020202" stroke="none">
 <path d="M1747 2108 c-13 -13 -29 -22 -36 -20 -20 7 -141 -56 -141 -72 0 -10 -9 -16 -23 -16 -26 0 -131 -82 -238 -187 l-65 -64 -70 42 c-38 23 -95 60 -127 81 -32 22 -72 46 -90 53 -18 7 -70 39 -117 69 -98 65 -132 70 -179 30 -23 -19 -31 -34 -31 -59 0 -40 31 -68 133 -125 34 -19 81 -48 102 -63 46 -33 241 -154 258 -160 8 -3 2 -21 -16 -53 -91 -157 -195 -429 -202 -525 -1 -26 -7 -55 -13 -65 -5 -11 -13 -53 -17 -94 -9 -103 -9 -104 -63 -130 -26 -12 -72 -38 -102 -56 -42 -25 -72 -34 -127 -39 -40 -4 -77 -13 -83 -20 -6 -7 -19 -11 -30 -8 -23 6 -128 -52 -138 -76 -4 -9 -16 -16 -27 -16 -22 0 -135 -116 -135 -139 0 -7 -9 -16 -19 -19 -21 -5 -137 -174 -147 -213 -12 -49 0 -57 74 -50 103 11 196 27 207 37 5 5 21 9 37 9 40 0 138 39 165 66 13 13 32 24 42 24 10 0 41 15 67 32 36 24 50 40 52 60 2 16 9 28 16 28 17 0 76 63 76 81 0 17 29 46 73 74 22 14 31 16 36 6 5 -7 11 -77 14 -156 3 -79 11 -154 17 -165 14 -26 18 -25 169 15 243 64 485 4 679 -169 35 -31 71 -56 82 -56 25 0 160 118 160 141 0 12 5 16 15 13 8 -4 54 10 101 31 47 20 118 43 157 52 95 20 266 12 362 -16 80 -24 118 -26 133 -8 13 16 32 191 32 298 0 46 4 79 10 79 6 0 20 -11 32 -25 12 -14 25 -25 30 -25 27 0 89 -54 106 -93 10 -23 33 -55 50 -69 18 -15 32 -33 32 -41 0 -8 8 -21 18 -29 20 -18 97 -58 111 -58 6 0 21 -11 34 -24 14 -13 56 -33 98 -46 41 -12 88 -26 104 -31 51 -16 260 -43 278 -36 10 4 17 17 17 31 0 28 -106 194 -144 223 -14 12 -26 25 -26 30 0 21 -112 133 -133 133 -12 0 -28 9 -35 20 -19 32 -88 70 -126 70 -18 0 -39 6 -45 14 -6 8 -42 17 -83 21 -47 4 -82 14 -100 26 -15 11 -63 39 -106 61 -134 70 -136 73 -150 175 -24 181 -88 379 -183 567 -53 104 -53 118 -4 130 13 3 68 35 121 71 54 36 101 65 105 65 5 0 44 24 88 53 44 28 102 66 128 82 45 28 48 33 51 76 3 41 -1 50 -24 68 -44 35 -84 28 -171 -32 -43 -29 -107 -67 -143 -83 -68 -32 -216 -129 -261 -171 l-26 -24 -29 23 c-16 12 -68 59 -115 103 -98 95 -205 175 -231 175 -10 0 -18 4 -18 10 0 15 -99 62 -123 58 -14 -2 -26 4 -32 17 -8 15 -22 21 -58 23 -38 3 -51 -1 -70 -20z m111 -670 l2 -668 -24 -6 c-14 -3 -111 -4 -216 -2 l-190 3 -23 27 c-63 77 -171 48 -184 -49 -14 -108 150 -151 192 -50 l14 35 217 4 c188 3 218 6 229 21 9 12 13 175 18 663 3 355 8 648 11 652 3 3 29 -5 56 -18 l50 -23 1 -281 c0 -270 7 -408 22 -422 4 -4 37 -6 74 -5 67 2 69 1 87 -30 37 -63 116 -71 173 -17 48 45 20 134 -51 158 -43 14 -75 2 -113 -45 -30 -35 -31 -36 -94 -33 l-64 3 -3 323 c-1 189 1 322 7 322 17 0 156 -113 247 -200 50 -48 100 -91 111 -94 16 -5 43 10 115 63 51 39 131 90 178 113 47 24 120 67 163 96 43 28 88 52 100 52 39 0 67 -27 67 -66 0 -31 -5 -38 -47 -62 -26 -15 -82 -51 -125 -79 -43 -29 -82 -53 -87 -53 -4 0 -51 -29 -105 -65 -53 -36 -107 -67 -119 -71 -12 -3 -33 -14 -46 -25 -22 -18 -23 -23 -12 -41 104 -167 218 -496 237 -687 7 -71 7 -73 48 -99 22 -14 73 -42 111 -62 39 -20 87 -48 107 -62 29 -20 50 -26 100 -27 48 -1 67 -5 78 -20 11 -12 25 -17 45 -14 42 6 129 -50 122 -78 -5 -17 -2 -19 27 -13 30 5 37 1 85 -53 40 -45 50 -63 46 -81 -5 -20 -3 -23 13 -18 12 4 26 -2 39 -16 30 -32 123 -181 123 -195 0 -16 -13 -16 -135 2 -128 19 -135 22 -135 48 0 20 -1 20 -13 2 -15 -20 -31 -18 -122 16 -41 15 -57 27 -61 45 -5 18 -11 23 -28 19 -13 -3 -42 7 -75 26 -48 28 -53 33 -49 60 4 24 1 28 -12 24 -20 -6 -52 26 -77 80 -12 26 -35 51 -68 72 -28 18 -57 39 -65 46 -8 7 -30 24 -47 36 l-33 22 0 -93 c0 -120 -18 -310 -31 -323 -6 -6 -39 -2 -97 14 -115 31 -288 39 -390 17 -40 -8 -110 -31 -155 -50 -44 -20 -83 -33 -86 -30 -3 3 -8 120 -9 259 l-4 254 26 7 c15 3 97 5 183 2 125 -3 158 -7 161 -18 3 -8 20 -30 38 -47 43 -44 98 -46 136 -5 68 73 26 172 -73 172 -23 0 -40 -9 -63 -33 l-32 -34 -188 -5 c-103 -4 -192 -10 -198 -16 -6 -6 -12 -127 -15 -293 l-6 -284 -55 -50 c-30 -27 -61 -54 -68 -58 -10 -5 -37 11 -83 50 -93 78 -164 119 -268 156 -76 26 -105 31 -213 35 -124 3 -168 -4 -336 -53 -30 -9 -34 8 -40 165 -3 74 -7 150 -10 168 l-5 33 -48 -26 c-59 -33 -101 -71 -101 -92 0 -23 -50 -73 -72 -73 -13 0 -18 -8 -18 -30 0 -23 -8 -35 -37 -54 -47 -30 -79 -40 -88 -26 -11 19 -25 10 -25 -16 0 -21 -9 -29 -53 -49 -75 -35 -115 -42 -123 -21 -9 22 -24 20 -24 -3 0 -11 -4 -22 -8 -25 -14 -8 -244 -38 -250 -32 -8 9 14 51 74 144 48 73 58 83 78 78 20 -5 23 -3 18 19 -3 19 8 37 53 84 56 59 58 60 81 44 24 -15 24 -15 24 15 0 26 7 35 55 62 43 25 58 29 74 21 26 -15 28 -14 34 9 4 16 14 20 49 21 87 3 97 6 154 40 33 20 80 46 107 58 26 13 51 30 56 39 5 10 12 53 16 98 4 44 10 86 15 93 5 10 102 14 409 18 324 5 403 9 413 20 8 10 12 168 16 554 5 538 5 541 26 549 12 5 35 8 51 7 l30 -2 3 -667z m-138 96 l0 -524 -401 0 -401 0 7 33 c33 150 107 343 185 478 28 48 50 91 50 97 0 5 -14 15 -31 22 -17 7 -67 37 -111 67 -45 30 -97 62 -118 73 -20 10 -42 26 -49 34 -8 9 -32 25 -55 35 -80 37 -141 84 -144 112 -4 31 37 69 72 69 11 0 59 -25 106 -56 47 -30 99 -61 115 -69 44 -19 215 -128 255 -163 l35 -30 91 87 c98 94 206 181 223 181 8 0 11 -121 11 -400 l0 -400 -154 0 c-148 0 -155 1 -161 21 -8 25 -62 59 -93 59 -56 0 -101 -46 -102 -103 0 -86 112 -132 173 -71 15 14 29 35 32 45 6 18 17 19 156 18 106 -1 153 2 164 11 13 10 15 72 17 433 l3 421 54 28 c29 15 57 25 62 22 5 -3 9 -231 9 -530z m617 -146 c48 -45 14 -128 -52 -128 -55 0 -87 58 -61 109 24 45 76 54 113 19z m-1132 -178 c28 -31 24 -79 -9 -107 -15 -12 -36 -23 -46 -23 -34 0 -73 43 -73 80 0 62 87 96 128 50z m150 -406 c23 -9 47 -61 39 -87 -18 -60 -76 -76 -119 -32 -59 58 2 148 80 119z m1157 -57 c25 -31 22 -70 -6 -96 -53 -50 -140 1 -120 71 17 59 88 73 126 25z"/>
 </g>
<g id="layer2" fill="#f6f6f6" stroke="none">
 <path d="M1773 2100 l-23 -9 -1 -393 c-1 -508 -6 -690 -22 -705 -9 -8 -125 -13 -411 -16 -428 -5 -416 -3 -415 -57 0 -83 -19 -170 -37 -170 -8 0 -14 -3 -14 -8 0 -4 -22 -15 -50 -25 -27 -10 -50 -22 -50 -27 0 -6 -7 -10 -15 -10 -8 0 -15 -4 -15 -10 0 -5 -6 -10 -14 -10 -8 0 -21 -6 -28 -12 -7 -7 -44 -14 -82 -16 -77 -3 -90 -8 -82 -27 2 -7 -2 -16 -10 -19 -8 -3 -14 -1 -14 3 0 16 -30 21 -55 9 -14 -6 -25 -15 -25 -20 0 -4 -6 -8 -12 -8 -23 0 -41 -18 -44 -42 -1 -12 -3 -26 -3 -30 -2 -11 -41 4 -41 16 0 6 -28 -18 -61 -53 -48 -50 -60 -68 -56 -87 4 -20 1 -23 -14 -19 -20 7 -69 -37 -69 -61 0 -8 -4 -14 -8 -14 -5 0 -17 -17 -28 -37 -10 -21 -22 -40 -25 -43 -10 -8 -29 -48 -29 -61 0 -8 12 -10 43 -5 23 4 58 9 77 12 33 4 68 9 115 17 11 2 21 13 23 25 4 25 17 29 26 7 6 -17 24 -19 58 -6 13 5 25 9 28 8 13 0 85 44 86 53 1 6 2 17 3 25 1 17 27 21 33 5 4 -13 68 7 68 21 0 5 6 9 14 9 17 0 31 27 35 68 0 6 8 12 16 12 16 0 70 44 70 58 2 17 17 52 23 52 4 0 18 10 32 23 14 12 42 30 62 39 l37 17 6 -32 c4 -26 8 -96 16 -277 2 -45 10 -59 31 -55 21 4 81 22 108 32 42 16 103 23 205 23 106 0 130 -3 183 -19 17 -5 32 -7 32 -4 0 3 7 0 15 -7 8 -7 15 -10 15 -6 0 4 10 0 23 -8 12 -8 25 -15 29 -16 11 0 82 -34 88 -40 3 -3 21 -17 40 -30 19 -13 61 -46 93 -72 63 -52 76 -53 114 -5 10 12 32 32 49 44 l31 22 2 178 c4 289 9 395 21 407 6 6 30 11 53 11 323 4 339 5 344 23 5 20 56 54 87 59 10 2 24 -1 31 -7 6 -5 15 -7 18 -3 4 3 7 1 7 -5 0 -7 6 -12 13 -12 16 0 37 -64 32 -101 -4 -37 -48 -77 -88 -80 -41 -4 -103 34 -111 67 -5 17 -16 23 -52 28 -67 9 -297 7 -312 -3 -10 -6 -12 -56 -8 -242 5 -264 6 -279 14 -279 3 0 25 11 49 25 23 14 43 23 43 19 0 -3 11 1 25 10 14 9 25 14 25 10 0 -4 7 -1 15 6 8 7 15 10 15 7 0 -3 15 -1 33 4 85 26 268 28 367 4 14 -3 30 -7 35 -8 6 -2 15 -6 21 -10 17 -10 79 -16 90 -9 17 13 28 118 28 294 1 65 3 118 6 118 3 0 16 -9 30 -20 14 -11 31 -20 38 -20 6 0 12 -6 12 -14 0 -7 15 -20 33 -27 32 -13 107 -76 105 -88 -4 -31 50 -95 74 -86 12 5 14 -1 10 -25 -4 -25 -1 -32 17 -37 11 -3 21 -8 21 -12 0 -13 72 -42 90 -36 13 4 19 -1 24 -18 5 -22 37 -43 77 -51 8 -2 27 -8 43 -15 34 -14 62 -10 58 7 -1 7 2 12 8 12 9 0 14 -14 11 -32 0 -5 5 -9 11 -10 25 -3 33 -4 53 -11 20 -6 93 -16 168 -21 39 -3 48 10 25 36 -7 7 -22 30 -32 51 -11 20 -23 37 -28 37 -4 0 -8 7 -8 15 0 8 -4 15 -10 15 -5 0 -10 6 -10 13 0 23 -45 58 -65 51 -15 -6 -17 -4 -12 15 6 23 1 31 -60 101 -27 31 -38 37 -64 34 -17 -2 -36 -7 -42 -11 -7 -4 -7 0 1 9 19 23 3 49 -48 76 -46 24 -75 28 -86 11 -4 -7 -11 -2 -18 13 -9 17 -21 24 -51 25 -21 1 -45 5 -52 7 -7 3 -15 1 -18 -4 -6 -10 -57 15 -91 46 -13 12 -45 29 -71 39 -27 10 -54 25 -61 32 -7 7 -20 13 -28 13 -8 0 -14 4 -14 10 0 5 -11 12 -24 16 -30 7 -34 18 -42 102 -3 37 -8 70 -11 75 -3 4 -6 18 -8 30 -2 12 -6 32 -9 45 -10 37 -16 61 -20 80 -11 48 -28 104 -41 136 -8 20 -15 38 -14 41 0 4 -7 17 -15 31 -9 13 -14 24 -10 24 3 0 -8 24 -24 54 -17 30 -28 57 -25 60 4 3 2 6 -3 6 -6 0 -16 16 -23 35 -7 19 -17 35 -22 35 -5 0 -8 3 -7 8 0 4 -2 15 -6 24 -10 22 22 54 63 63 17 4 34 12 38 18 5 7 25 21 46 31 20 11 37 23 37 28 0 4 6 8 14 8 8 0 22 10 30 22 9 12 16 19 16 15 0 -4 10 -2 23 5 12 7 25 11 30 10 4 -1 7 3 7 8 0 6 4 10 9 10 7 0 105 61 156 98 6 4 24 14 40 22 53 28 42 104 -17 116 -26 5 -78 -14 -78 -27 0 -5 -7 -9 -15 -9 -8 0 -15 -4 -15 -10 0 -5 -6 -10 -13 -10 -7 0 -27 -13 -45 -29 -17 -17 -32 -27 -32 -24 0 3 -6 1 -12 -5 -7 -6 -15 -10 -18 -9 -10 3 -90 -36 -90 -43 0 -5 -11 -11 -25 -14 -14 -4 -25 -11 -25 -16 0 -6 -7 -10 -15 -10 -9 0 -18 -7 -21 -15 -4 -8 -11 -15 -18 -15 -6 0 -23 -11 -38 -25 -15 -14 -30 -25 -34 -25 -4 0 -18 -10 -31 -22 l-24 -22 -37 19 c-20 11 -73 56 -118 100 -44 44 -93 89 -107 100 -15 11 -33 25 -40 30 -34 29 -70 55 -76 55 -3 0 -6 -145 -6 -323 l0 -322 65 -3 c46 -2 67 1 75 11 58 77 81 87 139 63 69 -29 91 -110 43 -159 -15 -14 -27 -24 -27 -22 0 3 -12 0 -26 -6 -18 -6 -37 -6 -59 1 -31 10 -75 51 -75 70 0 5 -29 8 -66 7 -66 -3 -93 7 -95 36 -4 61 -5 120 -7 378 l-2 295 -37 18 c-53 25 -68 27 -70 8 -1 -10 -5 -300 -9 -647 -3 -346 -10 -637 -15 -646 -11 -21 -89 -29 -290 -29 l-159 0 -15 -35 c-42 -103 -206 -61 -192 49 6 41 46 92 75 94 42 2 100 -21 111 -45 8 -18 16 -23 30 -18 11 3 22 1 26 -5 7 -12 364 -14 380 -2 6 4 10 240 10 672 l0 665 -30 2 c-16 1 -40 -2 -52 -7z"/>
 <path d="M1696 2062 c-4 -4 -11 -7 -14 -7 -19 -2 -52 -17 -52 -25 0 -5 -9 -12 -20 -15 -20 -6 -20 -14 -20 -427 1 -287 -3 -425 -10 -432 -7 -7 -65 -10 -165 -8 -130 3 -155 1 -155 -11 0 -8 -13 -29 -30 -47 -27 -29 -34 -31 -82 -29 -49 3 -55 6 -82 41 -22 31 -27 45 -22 70 7 36 46 75 82 84 42 11 105 -16 116 -48 l10 -28 154 0 155 0 -1 400 c-1 265 -5 400 -12 400 -20 0 -103 -68 -227 -189 l-85 -81 -25 22 c-14 13 -31 28 -38 35 -7 6 -23 15 -36 19 -12 4 -24 10 -27 14 -8 12 -142 96 -180 114 -39 17 -67 35 -88 54 -7 6 -20 12 -28 12 -8 0 -14 5 -14 10 0 6 -5 10 -11 10 -6 0 -17 7 -25 15 -22 22 -59 18 -88 -9 -44 -40 -33 -70 44 -112 19 -10 41 -25 48 -31 7 -7 25 -16 40 -20 15 -3 33 -15 41 -25 7 -11 33 -28 57 -39 24 -10 56 -29 71 -43 14 -14 42 -33 62 -43 20 -10 38 -21 41 -24 3 -3 21 -14 40 -24 44 -22 52 -35 34 -52 -8 -8 -14 -21 -14 -29 0 -8 -4 -14 -10 -14 -5 0 -12 -11 -16 -25 -3 -14 -10 -25 -16 -25 -5 0 -6 -4 -3 -10 3 -5 2 -10 -3 -10 -7 0 -46 -73 -47 -90 -1 -3 -9 -20 -18 -37 -10 -18 -15 -33 -12 -33 3 0 -2 -11 -11 -25 -9 -14 -13 -25 -9 -25 4 0 2 -7 -5 -15 -7 -8 -9 -15 -5 -15 4 0 2 -7 -5 -15 -7 -8 -9 -15 -5 -15 4 0 2 -7 -5 -15 -7 -8 -9 -15 -5 -15 4 0 3 -6 -3 -12 -5 -7 -13 -26 -15 -43 -6 -31 -11 -53 -23 -94 l-7 -24 399 4 399 4 3 522 c1 290 -2 524 -6 527 -5 3 -12 2 -16 -2z"/>
 <path d="M2254 1400 c-44 -18 -52 -96 -13 -126 45 -34 117 4 115 61 -2 57 -48 87 -102 65z"/>
 <path d="M1120 1218 c0 -4 -5 -7 -12 -5 -16 3 -39 -44 -32 -66 7 -24 40 -57 48 -49 3 3 6 0 6 -6 0 -20 37 -13 66 11 54 46 25 130 -43 125 -18 -1 -33 -6 -33 -10z"/>
 <path d="M1275 786 c-47 -44 -19 -113 49 -122 34 -4 74 24 62 45 -3 5 0 11 6 14 10 3 9 13 -5 41 -9 20 -22 34 -27 31 -6 -3 -10 -1 -10 4 0 20 -49 11 -75 -13z"/>
 <path d="M2422 770 c-21 -9 -42 -46 -42 -75 0 -8 10 -25 23 -38 28 -29 79 -32 104 -5 18 20 27 78 12 78 -5 0 -9 7 -9 15 0 9 -12 20 -26 25 -30 12 -32 12 -62 0z"/>
 </g>

</svg>